<svg width="250" height="32" viewBox="0 0 250 32" fill="none" xmlns="http://www.w3.org/2000/svg">
<path d="M1.14724 27.8568C0.148232 28.3281 -0.279606 29.5199 0.191632 30.5189C0.662871 31.5179 1.85474 31.9458 2.85374 31.4745L2.00049 29.6657L1.14724 27.8568ZM250 29.6657L236.743 10.7561L226.996 31.6922L250 29.6657ZM2.00049 29.6657L2.85374 31.4745C3.72486 31.0636 4.59837 30.6569 5.47423 30.2545L4.6392 28.4372L3.80417 26.6198C2.91612 27.0279 2.03047 27.4402 1.14724 27.8568L2.00049 29.6657ZM9.95368 26.0597L10.752 27.8935C12.5176 27.1248 14.2924 26.3733 16.0761 25.6392L15.3149 23.7897L14.5537 21.9402C12.7451 22.6846 10.9456 23.4466 9.15538 24.2259L9.95368 26.0597ZM20.7208 21.6281L21.4446 23.4925C23.2395 22.7957 25.0431 22.1163 26.8551 21.4545L26.169 19.5759L25.4829 17.6972C23.6456 18.3682 21.8169 19.0571 19.997 19.7636L20.7208 21.6281ZM31.6577 17.6338L32.3058 19.5259C34.1271 18.9021 35.9565 18.2959 37.7939 17.7077L37.1841 15.8029L36.5743 13.8981C34.7113 14.4946 32.8563 15.1092 31.0097 15.7417L31.6577 17.6338ZM42.7469 14.0837L43.3181 16.0003C45.1627 15.4505 47.0151 14.9187 48.8749 14.405L48.3424 12.4771L47.8099 10.5493C45.9241 11.0702 44.0459 11.6095 42.1756 12.167L42.7469 14.0837ZM53.9702 10.9835L54.4638 12.9217C56.3287 12.4468 58.2009 11.99 60.0801 11.5516L59.6257 9.60391L59.1713 7.65621C57.2659 8.10073 55.3676 8.56385 53.4767 9.04536L53.9702 10.9835ZM65.3094 8.33813L65.7245 10.2946C67.6067 9.89526 69.4957 9.51425 71.3912 9.15175L71.0156 7.18735L70.6399 5.22295C68.718 5.59048 66.8027 5.97679 64.8943 6.38168L65.3094 8.33813ZM76.7453 6.15121L77.0814 8.12276C78.978 7.79942 80.8809 7.49456 82.79 7.20836L82.4934 5.23047L82.1969 3.25257C80.2614 3.54273 78.3321 3.85182 76.4092 4.17965L76.7453 6.15121ZM88.2597 4.42498L88.5165 6.40841C90.4245 6.16132 92.3384 5.93284 94.2579 5.72315L94.0407 3.73498L93.8235 1.74681C91.8775 1.95939 89.9372 2.19103 88.0028 2.44154L88.2597 4.42498ZM99.8339 3.16049L100.011 5.1526C101.928 4.98181 103.85 4.82973 105.777 4.69653L105.639 2.70129L105.501 0.706053C103.547 0.841076 101.599 0.995249 99.6564 1.16839L99.8339 3.16049ZM111.45 2.35747L111.548 4.35505C113.469 4.26043 115.396 4.18457 117.327 4.12765L117.268 2.12852L117.209 0.129389C115.252 0.187081 113.299 0.263975 111.351 0.35989L111.45 2.35747ZM123.088 2.01427L123.108 4.01418C124.071 4.00473 125.035 4 126 4V2V0C125.022 0 124.045 0.00479674 123.068 0.0143683L123.088 2.01427ZM126 2V4C126.966 4 127.93 4.00473 128.893 4.01418L128.913 2.01427L128.933 0.0143687C127.956 0.00479686 126.979 0 126 0V2ZM134.733 2.12852L134.674 4.12765C136.605 4.18457 138.532 4.26043 140.453 4.35505L140.551 2.35747L140.65 0.359891C138.702 0.263976 136.749 0.187081 134.792 0.12939L134.733 2.12852ZM146.362 2.70129L146.224 4.69653C148.151 4.82973 150.073 4.98181 151.99 5.1526L152.167 3.16049L152.345 1.16839C150.402 0.99525 148.454 0.841077 146.5 0.706055L146.362 2.70129ZM157.96 3.73498L157.743 5.72315C159.663 5.93284 161.576 6.16133 163.484 6.40842L163.741 4.42498L163.998 2.44154C162.064 2.19103 160.123 1.95939 158.177 1.74681L157.96 3.73498ZM169.508 5.23047L169.211 7.20837C171.12 7.49456 173.023 7.79942 174.92 8.12276L175.256 6.15121L175.592 4.17966C173.669 3.85183 171.74 3.54273 169.804 3.25257L169.508 5.23047ZM180.985 7.18735L180.61 9.15176C182.505 9.51425 184.394 9.89526 186.277 10.2946L186.692 8.33813L187.107 6.38168C185.198 5.97679 183.283 5.59048 181.361 5.22295L180.985 7.18735ZM192.375 9.60391L191.921 11.5516C193.8 11.99 195.672 12.4468 197.537 12.9217L198.031 10.9835L198.524 9.04536C196.633 8.56385 194.735 8.10073 192.83 7.65621L192.375 9.60391ZM203.659 12.4772L203.126 14.405C204.986 14.9187 206.838 15.4506 208.683 16.0003L209.254 14.0837L209.825 12.167C207.955 11.6095 206.077 11.0702 204.191 10.5493L203.659 12.4772ZM214.817 15.8029L214.207 17.7077C216.044 18.2959 217.874 18.9021 219.695 19.5259L220.343 17.6338L220.991 15.7417C219.145 15.1092 217.29 14.4946 215.427 13.8981L214.817 15.8029ZM225.832 19.5759L225.146 21.4545C226.958 22.1163 228.761 22.7957 230.556 23.4925L231.28 21.6281L232.004 19.7637C230.184 19.0571 228.355 18.3682 226.518 17.6972L225.832 19.5759ZM236.686 23.7897L235.925 25.6392C237.709 26.3734 239.483 27.1249 241.249 27.8935L242.047 26.0597L242.846 24.2259C241.055 23.4466 239.256 22.6846 237.447 21.9402L236.686 23.7897ZM1.14724 27.8568C0.148232 28.3281 -0.279606 29.5199 0.191632 30.5189C0.662871 31.5179 1.85474 31.9458 2.85374 31.4745L2.00049 29.6657L1.14724 27.8568ZM250 29.6657L236.743 10.7561L226.996 31.6922L250 29.6657ZM2.00049 29.6657L2.85374 31.4745C3.72486 31.0636 4.59837 30.6569 5.47423 30.2545L4.6392 28.4372L3.80417 26.6198C2.91612 27.0279 2.03047 27.4402 1.14724 27.8568L2.00049 29.6657ZM9.95368 26.0597L10.752 27.8935C12.5176 27.1248 14.2924 26.3733 16.0761 25.6392L15.3149 23.7897L14.5537 21.9402C12.7451 22.6846 10.9456 23.4466 9.15538 24.2259L9.95368 26.0597ZM20.7208 21.6281L21.4446 23.4925C23.2395 22.7957 25.0431 22.1163 26.8551 21.4545L26.169 19.5759L25.4829 17.6972C23.6456 18.3682 21.8169 19.0571 19.997 19.7636L20.7208 21.6281ZM31.6577 17.6338L32.3058 19.5259C34.1271 18.9021 35.9565 18.2959 37.7939 17.7077L37.1841 15.8029L36.5743 13.8981C34.7113 14.4946 32.8563 15.1092 31.0097 15.7417L31.6577 17.6338ZM42.7469 14.0837L43.3181 16.0003C45.1627 15.4505 47.0151 14.9187 48.8749 14.405L48.3424 12.4771L47.8099 10.5493C45.9241 11.0702 44.0459 11.6095 42.1756 12.167L42.7469 14.0837ZM53.9702 10.9835L54.4638 12.9217C56.3287 12.4468 58.2009 11.99 60.0801 11.5516L59.6257 9.60391L59.1713 7.65621C57.2659 8.10073 55.3676 8.56385 53.4767 9.04536L53.9702 10.9835ZM65.3094 8.33813L65.7245 10.2946C67.6067 9.89526 69.4957 9.51425 71.3912 9.15175L71.0156 7.18735L70.6399 5.22295C68.718 5.59048 66.8027 5.97679 64.8943 6.38168L65.3094 8.33813ZM76.7453 6.15121L77.0814 8.12276C78.978 7.79942 80.8809 7.49456 82.79 7.20836L82.4934 5.23047L82.1969 3.25257C80.2614 3.54273 78.3321 3.85182 76.4092 4.17965L76.7453 6.15121ZM88.2597 4.42498L88.5165 6.40841C90.4245 6.16132 92.3384 5.93284 94.2579 5.72315L94.0407 3.73498L93.8235 1.74681C91.8775 1.95939 89.9372 2.19103 88.0028 2.44154L88.2597 4.42498ZM99.8339 3.16049L100.011 5.1526C101.928 4.98181 103.85 4.82973 105.777 4.69653L105.639 2.70129L105.501 0.706053C103.547 0.841076 101.599 0.995249 99.6564 1.16839L99.8339 3.16049ZM111.45 2.35747L111.548 4.35505C113.469 4.26043 115.396 4.18457 117.327 4.12765L117.268 2.12852L117.209 0.129389C115.252 0.187081 113.299 0.263975 111.351 0.35989L111.45 2.35747ZM123.088 2.01427L123.108 4.01418C124.071 4.00473 125.035 4 126 4V2V0C125.022 0 124.045 0.00479674 123.068 0.0143683L123.088 2.01427ZM126 2V4C126.966 4 127.93 4.00473 128.893 4.01418L128.913 2.01427L128.933 0.0143687C127.956 0.00479686 126.979 0 126 0V2ZM134.733 2.12852L134.674 4.12765C136.605 4.18457 138.532 4.26043 140.453 4.35505L140.551 2.35747L140.65 0.359891C138.702 0.263976 136.749 0.187081 134.792 0.12939L134.733 2.12852ZM146.362 2.70129L146.224 4.69653C148.151 4.82973 150.073 4.98181 151.99 5.1526L152.167 3.16049L152.345 1.16839C150.402 0.99525 148.454 0.841077 146.5 0.706055L146.362 2.70129ZM157.96 3.73498L157.743 5.72315C159.663 5.93284 161.576 6.16133 163.484 6.40842L163.741 4.42498L163.998 2.44154C162.064 2.19103 160.123 1.95939 158.177 1.74681L157.96 3.73498ZM169.508 5.23047L169.211 7.20837C171.12 7.49456 173.023 7.79942 174.92 8.12276L175.256 6.15121L175.592 4.17966C173.669 3.85183 171.74 3.54273 169.804 3.25257L169.508 5.23047ZM180.985 7.18735L180.61 9.15176C182.505 9.51425 184.394 9.89526 186.277 10.2946L186.692 8.33813L187.107 6.38168C185.198 5.97679 183.283 5.59048 181.361 5.22295L180.985 7.18735ZM192.375 9.60391L191.921 11.5516C193.8 11.99 195.672 12.4468 197.537 12.9217L198.031 10.9835L198.524 9.04536C196.633 8.56385 194.735 8.10073 192.83 7.65621L192.375 9.60391ZM203.659 12.4772L203.126 14.405C204.986 14.9187 206.838 15.4506 208.683 16.0003L209.254 14.0837L209.825 12.167C207.955 11.6095 206.077 11.0702 204.191 10.5493L203.659 12.4772ZM214.817 15.8029L214.207 17.7077C216.044 18.2959 217.874 18.9021 219.695 19.5259L220.343 17.6338L220.991 15.7417C219.145 15.1092 217.29 14.4946 215.427 13.8981L214.817 15.8029ZM225.832 19.5759L225.146 21.4545C226.958 22.1163 228.761 22.7957 230.556 23.4925L231.28 21.6281L232.004 19.7637C230.184 19.0571 228.355 18.3682 226.518 17.6972L225.832 19.5759ZM236.686 23.7897L235.925 25.6392C237.709 26.3734 239.483 27.1249 241.249 27.8935L242.047 26.0597L242.846 24.2259C241.055 23.4466 239.256 22.6846 237.447 21.9402L236.686 23.7897Z" fill="#CF956D"/>
</svg>
